# xmcd
#
# Track frame offsets:
#	150
#	13701
#	27407
#	43797
#	55251
#	78898
#	90152
#	99487
#	116567
#	129086
#	140195
#	153127
#	166234
#	181940
#	192583
#	211097
#	224163
#	240675
#	262356
#	276683
#	286468
#	300150
#
# Disc length: 4198
#
# Revision: 2
# Processed by: cddbd v1.5.1PL0 Copyright (c) Steve Scherf et al.
# Submitted via: audiograbber 1.80
# Normalized: r0:DSETVAR1,TDELIM( - ),TSWAP
#
DISCID=3e106416
DTITLE=Various Artist - 50 Years Of Country Music - Travelin' Cowboys
DYEAR=1900
DGENRE=
TTITLE0=Gene Henslee - Travellin' Cowboys
TTITLE1=George Hamilton IV - Commerce Street And Sixth Avenue North
TTITLE2=Wayne Holcomb - Tribute To George Jones
TTITLE3=Dave Hamil - Who'll Turn Out The Lights (In Your World Tonight)
TTITLE4=Jason Hawkins - Born To Sing The Blues
TTITLE5=Kirk Hansard - Widow Maker
TTITLE6=Freddie Hart - Farther Than My Eyes Can See
TTITLE7=Freddie Hart - Hank Williams Guitar
TTITLE8=Dallas Harms - Before You Leave Today
TTITLE9=Ronnie Hawkins - Weary Blues From Waiting
TTITLE10=Johnny Horton - North To Alaska
TTITLE11=Johnny Horton - I Just Don't Like This Kind Of Livin'
TTITLE12=Harlan Howard - The Deepening Snow
TTITLE13=Harlan Howard - Wishin' She Was Here (Instead Of Me)
TTITLE14=Merle Haggard - Footlights
TTITLE15=Merle Haggard - I Wonder If They Ever Think Of Me
TTITLE16=Emmylou Harris - Making Believe
TTITLE17=Emmylou Harris - Tulsa Queen
TTITLE18=Brian James - Where Are All The Girls I Used to Cheat With
TTITLE19=Homer Joy - Holdin' On
TTITLE20=Jake Jacobs - Lord I Need Somebody Bad
TTITLE21=Jake Jacobs - I'll Never Stop Loving You
EXTD=
EXTT0=
EXTT1=
EXTT2=
EXTT3=
EXTT4=
EXTT5=
EXTT6=
EXTT7=
EXTT8=
EXTT9=
EXTT10=
EXTT11=
EXTT12=
EXTT13=
EXTT14=
EXTT15=
EXTT16=
EXTT17=
EXTT18=
EXTT19=
EXTT20=
EXTT21=
PLAYORDER=
